PathFileType	4	(X/Y/Z)	pose_F01_0-92.trc
DataRate	CameraRate	NumFrames	NumMarkers	Units	OrigDataRate	OrigDataStartFrame	OrigNumFrames
30	30	11	21	m	30	78	92
Frame#	Time	CHip			RHip			RKnee			RAnkle			RBigToe			RSmallToe			RHeel			LHip			LKnee			LAnkle			LBigToe			LSmallToe			LHeel			Neck			Nose			RShoulder			RElbow			RWrist			LShoulder			LElbow			LWrist			
		X1	Y1	Z1	X2	Y2	Z2	X3	Y3	Z3	X4	Y4	Z4	X5	Y5	Z5	X6	Y6	Z6	X7	Y7	Z7	X8	Y8	Z8	X9	Y9	Z9	X10	Y10	Z10	X11	Y11	Z11	X12	Y12	Z12	X13	Y13	Z13	X14	Y14	Z14	X15	Y15	Z15	X16	Y16	Z16	X17	Y17	Z17	X18	Y18	Z18	X19	Y19	Z19	X20	Y20	Z20	X21	Y21	Z21	
78	2.6	-0.1604420974761109	1.87322569734588	-0.39642610204874373	-0.16840380328715393	1.8691962027327145	-0.33553302763433057	-0.15902823341790545	1.7260105561115089	-0.32445201135934165													-0.15243136443277683	1.8763340447558678	-0.4603405611893566	-0.15228252672904166	1.7412580198820549	-0.48196398691314013	-0.12532091014785796	1.5969562445429855	-0.5251146457056189	-0.15075677275267607	1.5587575079264293	-0.5496839026157243	-0.1379875933012835	1.5677307050090565	-0.5725483583811521	-0.11705531022540498	1.5861805611015456	-0.5060798176086271	-0.15440121611635446	2.0276579112693036	-0.4136021388367997	-0.1821404268367796	2.0971029488001975	-0.4317079786382218	-0.16498331677988473	2.0239560760248665	-0.3295145979209288	-0.18485693209493737	1.949344529274483	-0.2601991571960198	-0.20123334546138677	2.02313463002852	-0.269903095648933	-0.141836468120906	2.031808350262	-0.49744128458944037	-0.1462738808932927	1.9555613730251413	-0.5137401875539854	-0.17788958923487716	1.88636340665739	-0.49334495648747917
79	2.6333333333333333	-0.16259482434330147	1.8736929391939103	-0.40326389723559775	-0.1685006273949181	1.8682632344260266	-0.3355691684918104	-0.16048520080886036	1.7271477155191128	-0.32748321118653195													-0.15359394981062102	1.8766036611562313	-0.46361936964430517	-0.152639418586559	1.7411860726716226	-0.4816514018853445	-0.1253375252961615	1.5998032680923064	-0.525460644357698	-0.1507749969844327	1.559016214328507	-0.5496574995936835	-0.13798154116516928	1.567764834381838	-0.5725736754815897	-0.11674146742799228	1.5871074117227755	-0.506670844008148	-0.1524584454069488	2.0289283679603263	-0.4158288036834003	-0.1830057948580724	2.0984840607108395	-0.4346559095585233	-0.16221576312310154	2.0265814815047705	-0.32966250905328237	-0.1747865428703381	1.9420049642704234	-0.2662429707516872	-0.20626919343404462	1.9915034518005497	-0.25240506232450566	-0.1418866680961705	2.031858134249219	-0.4976064323565081	-0.1445422800713212	1.9520226140908463	-0.5155668892509926	-0.17371365903095753	1.8827223345854236	-0.5024849316401035
80	2.6666666666666665	-0.16155898796775833	1.8724708464498327	-0.4086381408391756	-0.1648350568284905	1.8684686632273848	-0.3401675606043397	-0.1603857116093599	1.7290161828147677	-0.3280377536755935													-0.15354715808731034	1.8764993854676337	-0.46382370805948486	-0.1514979940641643	1.7405252999745962	-0.4870723184441622	-0.12530046789131769	1.5967742693946296	-0.5250931850662425	-0.15170737229594108	1.5588246185416033	-0.5530604728615875	-0.1379848041334549	1.5677153247226179	-0.5726603263584338	-0.1170385241990163	1.5859989106200512	-0.5060313290812029	-0.15255446722357602	2.0280310351743376	-0.4160212141292312	-0.1830918189469562	2.0980571919719235	-0.43486981064215097	-0.16306971116615238	2.024975786680677	-0.33174587258519495	-0.16895791798220297	1.9388202913590122	-0.27844211604389524	-2.3006129976433156	1.9278702257882547	2.263268975224127	-0.14187372502593318	2.030581060827029	-0.49719504197317516	-0.1447111245849597	1.9521475501299774	-0.5160371384404845	-0.16953772882703794	1.8790812625134572	-0.5116249067927279
81	2.7	-0.16229386411582394	1.8724390273542157	-0.4118430270029992	-0.1656493688420001	1.8704476081981618	-0.343833551289117	-0.1633575483383882	1.7307379717299416	-0.3388091364629863													-0.15333364336150943	1.8751846782280783	-0.46350660233655816	-0.15134058705113315	1.7395986306692095	-0.48711571532519055	-0.12614644650214962	1.5952862014479698	-0.5199477566300751	-0.1516758090464778	1.558726436864722	-0.5529306704886595	-0.13712065219524214	1.5678081311198175	-0.5693323681369278	-0.11862990097910683	1.5839188249202016	-0.5040205142413086	-0.15337805956770253	2.0291714856093095	-0.41907919953278683	-0.18406465653311282	2.097975274645162	-0.43795713460572605	-0.16309235107276485	2.025026359197309	-0.3319066032446184	-0.16253734614740212	1.9431412267581427	-0.28291112297094156	-1.255182335303295	1.9085747545720277	1.0189707257166198	-0.14271493376981	2.030696708989282	-0.5002080809135596	-0.144653496710656	1.9521529372754083	-0.5161170755015264	-0.16772802223150965	1.877673761216807	-0.5139428989781989
82	2.7333333333333334	-0.16239529973932607	1.8734570480565844	-0.4120740641517952	-0.1657875514728627	1.868988383978072	-0.3435021193554304	-0.16445383563961452	1.729011439394715	-0.34182642240890826													-0.15344318315917282	1.8764853176809086	-0.4638143765251936	-0.15152784622138202	1.741120268117648	-0.4873269495434245	-0.12731059849046328	1.5940400739867955	-0.5225028303799658	-0.15073372123382908	1.5586635311676897	-0.5496527504982645	-0.13826034366193604	1.5664037827840052	-0.5719230454456538	-0.11905311737295603	1.5832993147431604	-0.5033708909876092	-0.15338542431979948	2.029212446314555	-0.41927494057299364	-0.1842136323906168	2.096694384349442	-0.4457296994129706	-0.1622094468421183	2.026282807432446	-0.33714413475303506	-0.1657240568411453	1.9420316664851451	-0.29287104032565076	-0.20975167296327413	1.8892792833558005	-0.22532752379088702	-0.14273857093676198	2.030739881016155	-0.5004782217734758	-0.14339503299514786	1.9525092206649077	-0.5211149633717389	-0.16816004361682324	1.8754419832416798	-0.5170167406090108
83	2.7666666666666666	-0.16265271008071142	1.8710643630633286	-0.41206992397855297	-0.16612562706873021	1.8683840166507655	-0.3524358099039985	-0.16365867520307872	1.73072497706313	-0.33848185409626647													-0.1552327846358073	1.8745389327152016	-0.47000263872356535	-0.1526651238063974	1.7399330888014581	-0.49024022070209217	-0.12532450008851942	1.5968482274634375	-0.525074705459571	-0.1516428135179493	1.5585783078110547	-0.5529918378123349	-0.13801215006197598	1.565067239259099	-0.5722890215247255	-0.11892379508340085	1.585354575646369	-0.5037497476082322	-0.15434965696880432	2.029160162991143	-0.42245679591445506	-0.18692988099693325	2.098639028522088	-0.4549452042059017	-0.16412744139627702	2.027143083100156	-0.33587608974702593	-0.16976788655444014	1.93991577523298	-0.305372837269371	-0.2058518434664892	1.8713189818334928	-0.24741836794092767	-0.1408231150509626	2.0307964104731315	-0.5027620841322141	-0.14530769670624413	1.9521729782393336	-0.5188749392135394	-0.16635508578519861	1.8773213173491459	-0.5193135691127504
84	2.8	-0.16152601593308616	1.8685120831106559	-0.41690662308297227	-0.1698594151338275	1.8671554619056248	-0.35674291745140785	-0.1637106793305013	1.726897766939949	-0.3470865601795415													-0.15413406582414385	1.8735450588415354	-0.4753625713685118	-0.15415941049055026	1.736924327611437	-0.4969403431225665	-0.12731015563418227	1.5941032593270554	-0.5225425582415152	-0.15253875102474673	1.5585725576116218	-0.5563325087322247	-0.1377526945985661	1.566393899935839	-0.5729609433862585	-0.11904567423954138	1.5832977784013944	-0.5033745491164779	-0.15441710902666336	2.028982730168412	-0.4225953986996819	-0.1868710700647072	2.1002390792894836	-0.4558096338678902	-0.16527435909682586	2.024464980052976	-0.3385037602404734	-0.17074393157672693	1.9386614680727847	-0.3083113625305703	-0.19919414383803147	1.8595542970879413	-0.2627633946053739	-0.14168275849915601	2.030854806547347	-0.5059801918376381	-0.14432411594196098	1.9527674198967682	-0.5245003596337661	-0.18080622117811146	1.8857829408482023	-0.503431894010522
85	2.8333333333333335	-0.16129536906694303	1.8723047203031675	-0.41757546813831525	-0.17054702316227827	1.8695570371295975	-0.360471752405813	-0.16342811760005604	1.7271936914304267	-0.34764107831305996													-0.15390805275634056	1.8747295030422675	-0.47556546153661544	-0.15541771798162088	1.7395443258285934	-0.5003967166760619	-0.12534845641407352	1.5943204740896482	-0.5247500740600408	-0.15260065542483403	1.5586407733810577	-0.5563958399910925	-0.13782725236478327	1.5665296621775424	-0.5729826664706968	-0.11790972012018988	1.5846834897001882	-0.5007770393408101	-0.15532113334750483	2.0290764095566267	-0.42572579945598227	-0.1859256705353409	2.1005818512583736	-0.46093570122414185	-0.16626428552472344	2.0246931914811968	-0.341721669491312	-0.16904846432528164	1.9415871366384954	-0.3117816861922014	-0.18828091657902388	1.8653352832506822	-0.30103042053390205	-0.13974323375191045	2.030891722738239	-0.508161664440811	-0.14359341581850013	1.9497209866640126	-0.5212397813279473	-0.166723627293082	1.872218033971899	-0.5191722486556503
86	2.8666666666666667	-0.16143745991253675	1.8694434637087196	-0.4173596533478459	-0.1716482816199139	1.8662135034685847	-0.3634021818414717	-0.1654368133364391	1.7257122117903407	-0.3450974496020337													-0.15583006383452305	1.8713506947084653	-0.481982560808629	-0.15529615503209726	1.7381512580272054	-0.5003382471313161	-0.12735281975681773	1.5941562807370333	-0.5224894460586175	-0.15252291522040928	1.5582670100732272	-0.5562814684375696	-0.13802658481124616	1.565049349528954	-0.5722987815182355	-0.1190735378681296	1.5833983255290907	-0.5033819123989604	-0.15726063954254452	2.029209993593487	-0.4323343941417254	-0.18581792473059267	2.1017966398862584	-0.46096029761429874	-0.171098604836132	2.0249609177629386	-0.34942562903259716	-0.16806549859526465	1.9429809982978	-0.3173609138463326	-0.18202184627765933	1.865405339649332	-0.31447184700246145	-0.14230448335563387	2.031215925956232	-0.5178197044868431	-0.14450799444807663	1.9474414266668427	-0.5240757686716608	-0.1654849956023574	1.8724792401674786	-0.524342254654662
87	2.9	-0.16246838106844097	1.871114523961758	-0.4208642474198323	-0.17176982638770216	1.8673564851069244	-0.36374820145208664	-0.16439520293888812	1.7270043961448729	-0.3509375782374539													-0.1568575606713808	1.8729744164436277	-0.4854775004046621	-0.1562586183040193	1.738886813317254	-0.5036440717487484	-0.12500807755303908	1.5953375931165803	-0.5253610304979228	-0.15164500423995533	1.5586297159874305	-0.5530183879407686	-0.13773501055719747	1.5664295543245017	-0.5728902352046169	-0.11659035719721264	1.5837870629260478	-0.506238477219665	-0.15635020844333983	2.0295209898091633	-0.4377838341092611	-0.18490542895846399	2.0994051091438894	-0.4656365864097172	-0.1702178878966661	2.0255102341656483	-0.3548541142409402	-0.16625019278192965	1.9431725368126023	-0.3195317780221711	-0.17849738508247212	1.858395840269978	-0.31837389778318836	-0.14125354637429027	2.0314743160939286	-0.5231930964118924	-0.1447623168076797	1.9475358710986816	-0.5243074963493249	-0.16582592371541272	1.8741501945347891	-0.5247014246786813
88	2.933333333333333	-0.16354587387970543	1.8701666103088144	-0.42412646540028354	-0.1710322074180782	1.8664405320715132	-0.3691137753988568	-0.16441176695078766	1.7268013618988283	-0.35092467423367907													-0.15686887364780222	1.8729825919640672	-0.4855465023290864	-0.1559575209403798	1.7365846811646672	-0.5038541501905959	-0.1270398713271467	1.5953839142212392	-0.5231648606820265	-0.15241920878271353	1.558183212595889	-0.5564681821542103	-0.13853733699581056	1.5661814332846236	-0.5762337298827921	-0.11860730496879561	1.5860669694501288	-0.5045636546000191	-0.15720633951069263	2.029691564333553	-0.44107177868842784	-0.1849219055057749	2.0992206535161317	-0.46587250609299863	-0.16844654988997598	2.02570162620833	-0.3571139603417146	-0.1663713794611806	1.9442579707919803	-0.3200289432344805	-0.18506409012992686	1.86781412046835	-0.315156068217377	-0.14202753956733677	2.0315929461340567	-0.5264659865775698	-0.14461271345717092	1.9487503254933705	-0.5245633434007043	-0.16678894290503601	1.8721539161024636	-0.5276868929405121
